<svg width="11" height="15" viewBox="0 0 11 15" fill="none" xmlns="http://www.w3.org/2000/svg">
<path d="M0.99093 7.3821C1.09613 7.5771 1.29617 7.69867 1.51373 7.69867H4.90161V14.3881C4.90161 14.7259 5.16939 15 5.49933 15C5.82927 15 6.09705 14.7259 6.09705 14.3881V7.69867H9.48492C9.70329 7.69867 9.90333 7.5771 10.0077 7.3821C10.1137 7.18711 10.1065 6.94887 9.99099 6.7604L6.0054 0.285559C5.89542 0.107696 5.70494 0 5.49933 0C5.29371 0 5.10324 0.107696 4.99326 0.285559L1.00767 6.7604C0.947097 6.85994 0.916016 6.97335 0.916016 7.08676C0.916016 7.18792 0.941518 7.28991 0.99093 7.3821Z" fill="#11CABE"/>
</svg>
