<svg width="11" height="15" viewBox="0 0 11 15" fill="none" xmlns="http://www.w3.org/2000/svg">
<path d="M10.0078 7.61789C9.90257 7.4229 9.70253 7.30133 9.48496 7.30133H6.09709V0.611912C6.09709 0.274137 5.82931 0 5.49937 0C5.16943 0 4.90165 0.274137 4.90165 0.611912V7.30133H1.51378C1.29541 7.30133 1.09537 7.4229 0.990972 7.61789C0.884977 7.81289 0.892149 8.05113 1.00771 8.2396L4.9933 14.7144C5.10328 14.8923 5.29375 15 5.49937 15C5.70499 15 5.89546 14.8923 6.00544 14.7144L9.99103 8.2396C10.0516 8.14006 10.0827 8.02665 10.0827 7.91324C10.0827 7.81207 10.0572 7.71009 10.0078 7.61789" fill="#FA2256"/>
</svg>
