<svg width="28" height="44" viewBox="0 0 28 44" fill="none" xmlns="http://www.w3.org/2000/svg">
<path d="M22.8008 0H5.20078C2.77494 0 0.800781 1.97416 0.800781 4.4V39.6C0.800781 42.0258 2.77494 44 5.20078 44H22.8008C25.2266 44 27.2008 42.0258 27.2008 39.6V4.4C27.2008 1.97416 25.2266 0 22.8008 0ZM25.0008 39.6C25.0008 40.8152 24.0159 41.8 22.8008 41.8H5.20078C3.98563 41.8 3.00078 40.8152 3.00078 39.6V4.4C3.00078 3.18484 3.98563 2.2 5.20078 2.2H22.8008C24.0159 2.2 25.0008 3.18484 25.0008 4.4V39.6Z" fill="#BD47FB"/>
</svg>
